%
M48
M72
T01C0.01300
T02C0.03543
T03C0.04000
T04C0.04724
T05C0.05512
T06C0.06299
T07C0.11811
%
T01
X109195Y89365
X112395Y82165
X92395Y102165
X109195Y118965
X129995Y137365
X136395Y143765
X144395Y145365
X137995Y158165
X161195Y138165
X164395Y139765
X158795Y119765
X165995Y106965
X141995Y124565
T02
X190233Y110370
X190233Y98559
X151272Y67446
X142272Y67446
X133272Y67446
X124272Y67446
X115272Y67446
X119772Y59651
X128772Y59651
X137772Y59651
X146772Y59651
X155772Y59651
X151272Y51856
X142272Y51856
X133272Y51856
X124272Y51856
X115272Y51856
X78225Y98559
X78225Y110370
T03
X119465Y108736
X119465Y98894
X129307Y98894
X134229Y91020
X139150Y98894
X139150Y108736
X148992Y108736
X148992Y98894
X129307Y108736
X129307Y118579
X119465Y118579
X139150Y118579
X148992Y118579
X144229Y164760
X134229Y174760
X124229Y164760
X101729Y164760
X91729Y174760
X81729Y164760
X166729Y164760
X176729Y174760
X186729Y164760
T04
X176729Y141138
X91729Y141138
T05
X91729Y116965
X176729Y116965
T06
X190648Y127218
X162809Y127218
X162809Y155057
X190648Y155057
X105648Y155057
X77809Y155057
X77809Y127218
X105648Y127218
T07
X85016Y59651
X183441Y59651
M30
